<svg width="230" height="230" viewBox="0 0 230 230" fill="none" xmlns="http://www.w3.org/2000/svg">
<path fill-rule="evenodd" clip-rule="evenodd" d="M0 0H99.7506C126.655 0 147.677 23.2295 145 50H50C22.3858 50 0 27.6142 0 0ZM0 80V180V230H50H100C102.024 230 104.02 229.88 105.982 229.646C117.387 230.543 128.885 229.735 140.094 227.229C155.344 223.819 169.739 217.337 182.4 208.179C195.061 199.02 205.723 187.378 213.735 173.961C221.746 160.545 226.94 145.637 228.998 130.147C231.056 114.657 229.936 98.9097 225.706 83.8669C221.475 68.8241 214.223 54.8013 204.393 42.6545C194.563 30.5077 182.36 20.4917 168.53 13.218C154.7 5.94438 139.532 1.56561 123.953 0.349045L126.267 2.19414C135.005 9.16045 143.233 18.4283 149 28C151.589 32.2974 153.382 35.6902 154.952 38.6601C157.437 43.363 159.363 47.0055 163 51.5C168.935 58.8329 179.278 87.124 181.832 96.2052C184.386 105.286 185.062 114.793 183.82 124.144C182.577 133.495 179.442 142.495 174.605 150.595C169.769 158.694 163.332 165.722 155.689 171.251C150.658 174.89 145.174 177.829 139.388 180H50V80H0Z" fill="url(#paint0_linear_4_28)"/>
<defs>
<linearGradient id="paint0_linear_4_28" x1="161.852" y1="0.349045" x2="161.852" y2="230" gradientUnits="userSpaceOnUse">
<stop stop-color="#14A9FF"/>
<stop offset="1" stop-color="#0088F0"/>
</linearGradient>
</defs>
</svg>